HIERARCHY
ROOT Hips
{
	OFFSET -0.001795 -0.223333 0.028219
	CHANNELS 6 Xposition Yposition Zposition Zrotation Yrotation Xrotation 
	JOINT LeftUpLeg
	{
		OFFSET 0.069520 -0.091406 -0.006815
		CHANNELS 3 Zrotation Yrotation Xrotation
		JOINT LeftLeg
		{
			OFFSET 0.034277 -0.375199 -0.004496
			CHANNELS 3 Zrotation Yrotation Xrotation
			JOINT LeftFoot
			{
				OFFSET -0.013596 -0.397961 -0.043693
				CHANNELS 3 Zrotation Yrotation Xrotation
				JOINT LeftToe
				{
					OFFSET 0.026358 -0.055791 0.119288
					CHANNELS 3 Zrotation Yrotation Xrotation
					End Site
					{
						OFFSET 0.000000 0.000000 0.000000
					}
				}
			}
		}
	}
	JOINT RightUpLeg
	{
		OFFSET -0.067670 -0.090522 -0.004320
		CHANNELS 3 Zrotation Yrotation Xrotation
		JOINT RightLeg
		{
			OFFSET -0.038290 -0.382569 -0.008850
			CHANNELS 3 Zrotation Yrotation Xrotation
			JOINT RightFoot
			{
				OFFSET 0.015774 -0.398415 -0.042312
				CHANNELS 3 Zrotation Yrotation Xrotation
				JOINT RightToe
				{
					OFFSET -0.025372 -0.048144 0.123348
					CHANNELS 3 Zrotation Yrotation Xrotation
					End Site
					{
						OFFSET 0.000000 0.000000 0.000000
					}
				}
			}
		}
	}
	JOINT Spine
	{
		OFFSET -0.002533 0.108963 -0.026696
		CHANNELS 3 Zrotation Yrotation Xrotation
		JOINT Spine1
		{
			OFFSET 0.005487 0.135180 0.001092
			CHANNELS 3 Zrotation Yrotation Xrotation
			JOINT Spine2
			{
				OFFSET 0.001457 0.052922 0.025425
				CHANNELS 3 Zrotation Yrotation Xrotation
				JOINT Neck
				{
					OFFSET -0.002778 0.213870 -0.042857
					CHANNELS 3 Zrotation Yrotation Xrotation
					JOINT Head
					{
						OFFSET 0.005152 0.064970 0.051349
						CHANNELS 3 Zrotation Yrotation Xrotation
						End Site
						{
							OFFSET 0.000000 0.000000 0.000000
						}
					}
				}
				JOINT LeftShoulder
				{
					OFFSET 0.078845 0.121749 -0.034090
					CHANNELS 3 Zrotation Yrotation Xrotation
					JOINT LeftArm
					{
						OFFSET 0.090977 0.030469 -0.008868
						CHANNELS 3 Zrotation Yrotation Xrotation
						JOINT LeftForeArm
						{
							OFFSET 0.259612 -0.012772 -0.027456
							CHANNELS 3 Zrotation Yrotation Xrotation
							JOINT LeftHand
							{
								OFFSET 0.249234 0.008986 -0.001171
								CHANNELS 3 Zrotation Yrotation Xrotation
								End Site
								{
									OFFSET 0.000000 0.000000 0.000000
								}
							}
						}
					}
				}
				JOINT RightShoulder
				{
					OFFSET -0.081759 0.118833 -0.038615
					CHANNELS 3 Zrotation Yrotation Xrotation
					JOINT RightArm
					{
						OFFSET -0.096012 0.032551 -0.009143
						CHANNELS 3 Zrotation Yrotation Xrotation
						JOINT RightForeArm
						{
							OFFSET -0.253742 -0.013329 -0.021401
							CHANNELS 3 Zrotation Yrotation Xrotation
							JOINT RightHand
							{
								OFFSET -0.255298 0.007772 -0.005559
								CHANNELS 3 Zrotation Yrotation Xrotation
								End Site
								{
									OFFSET 0.000000 0.000000 0.000000
								}
							}
						}
					}
				}
			}
		}
	}
}
MOTION
Frames: 17
Frame Time: 0.050000
0.021185 0.906128 0.607427 -179.739376 16.732196 176.880547 5.185604 -4.978289 -12.443013 -19.839687 -16.000070 16.973779 57.224468 -10.458986 6.896992 0.000000 0.000000 0.000000 2.467237 -13.413025 -19.335052 -13.596720 -21.338701 28.064225 24.642996 -1.094624 -0.380223 0.000000 0.000000 0.000000 -11.056175 -18.202486 37.193009 -5.868188 -4.575955 -31.539647 10.735373 27.524910 32.501895 13.183329 -1.800942 -36.653228 0.000000 0.000000 0.000000 0.617649 -30.156351 -90.800771 -5.223809 56.601771 7.045289 -45.753666 -14.188356 4.452788 0.000000 0.000000 0.000000 22.030382 -20.992514 77.008135 -24.374597 69.768521 -31.129872 -29.184108 21.167490 -8.548929 0.000000 0.000000 0.000000 
0.025497 0.905333 0.608431 179.995497 15.690870 176.427697 5.084584 -5.002934 -12.367886 -20.067102 -16.311403 17.527610 57.508451 -10.894970 6.377109 0.000000 0.000000 0.000000 2.036387 -13.700258 -18.984696 -13.982299 -22.258057 28.814640 25.547801 -0.987223 -0.971553 0.000000 0.000000 0.000000 -11.939469 -18.749030 37.789075 -5.389175 -4.254875 -31.547655 11.029305 27.836476 32.541401 13.197868 -2.925504 -36.245082 0.000000 0.000000 0.000000 1.637502 -29.522036 -94.607700 -0.689967 57.548107 10.011752 -46.801201 -11.320006 3.681269 0.000000 0.000000 0.000000 20.993700 -21.145612 79.888297 -31.259125 69.060212 -35.542936 -30.075538 20.114394 -8.567161 0.000000 0.000000 0.000000 
0.029964 0.905093 0.609121 179.715882 14.759691 176.051191 5.090249 -5.039357 -12.199071 -20.378943 -16.619991 17.767124 57.530161 -11.328031 6.023340 0.000000 0.000000 0.000000 1.769570 -13.858566 -18.670740 -14.401311 -22.860499 29.339916 26.115038 -1.102146 -1.455422 0.000000 0.000000 0.000000 -12.149601 -19.091641 38.057374 -5.343470 -4.269229 -31.431681 11.361141 27.896729 32.628026 12.625320 -4.022341 -35.993986 0.000000 0.000000 0.000000 2.482313 -29.259343 -98.003055 4.267311 58.806660 13.535288 -46.988060 -9.571527 3.039969 0.000000 0.000000 0.000000 19.674462 -21.208495 82.886903 -38.523920 68.499323 -40.063017 -31.478216 18.492876 -8.424546 0.000000 0.000000 0.000000 
0.034477 0.905009 0.609623 179.355630 14.270443 175.710177 4.806400 -4.885108 -11.840696 -19.964082 -16.494498 17.701122 57.509451 -11.798853 5.265928 0.000000 0.000000 0.000000 1.410136 -13.911357 -18.187595 -14.216904 -23.144385 29.295373 26.602264 -1.302404 -2.128396 0.000000 0.000000 0.000000 -12.027459 -19.252068 38.114153 -5.638438 -4.623452 -31.443907 11.701426 28.145875 32.611998 12.236808 -5.314598 -35.348442 0.000000 0.000000 0.000000 3.254603 -28.581692 -101.025592 8.777778 59.464603 16.608482 -46.986721 -7.382514 2.102151 0.000000 0.000000 0.000000 18.633218 -21.353772 85.177758 -44.490262 67.780686 -43.566071 -32.571346 17.379659 -8.352799 0.000000 0.000000 0.000000 
0.039183 0.905969 0.610154 179.183464 13.360549 175.553863 4.744463 -4.881546 -11.574839 -19.454247 -16.330645 17.414678 57.423430 -12.740385 4.367090 0.000000 0.000000 0.000000 1.254100 -13.715306 -17.592800 -13.623148 -23.226511 28.695304 26.329264 -2.366821 -2.760284 0.000000 0.000000 0.000000 -11.782266 -19.323738 38.030791 -5.498518 -4.576358 -31.498880 11.788021 27.810678 32.791825 11.668946 -6.154128 -35.398875 0.000000 0.000000 0.000000 4.151226 -27.778138 -105.449801 16.906178 60.219491 22.443161 -46.892046 -5.578466 1.316316 0.000000 0.000000 0.000000 17.733304 -21.747908 88.400291 -51.663388 65.922817 -47.517045 -33.835100 15.699046 -8.155477 0.000000 0.000000 0.000000 
0.044262 0.906243 0.610658 179.043289 12.981304 175.495816 4.727569 -4.913384 -11.585569 -19.042288 -16.157572 17.543824 57.531663 -13.137538 3.858503 0.000000 0.000000 0.000000 1.335946 -13.456035 -17.340077 -13.419149 -23.308249 28.464394 26.256745 -2.863686 -3.269106 0.000000 0.000000 0.000000 -11.479406 -19.215175 37.782844 -5.195615 -4.290638 -31.507053 11.350862 27.420076 32.670572 11.459692 -7.357056 -34.708475 0.000000 0.000000 0.000000 4.582786 -27.241510 -107.301290 21.664561 60.444555 25.710022 -47.340615 -4.648139 0.833560 0.000000 0.000000 0.000000 17.639964 -21.841129 89.528878 -53.829889 65.079454 -48.737442 -34.569070 15.376104 -8.321684 0.000000 0.000000 0.000000 
0.049534 0.906013 0.611099 179.104949 12.389725 175.351219 5.027069 -5.103308 -11.473732 -18.888968 -16.095732 17.655570 57.814781 -13.449745 3.350268 0.000000 0.000000 0.000000 1.424540 -12.848727 -16.635916 -12.635584 -23.422006 27.757601 26.071300 -3.922986 -4.367687 0.000000 0.000000 0.000000 -11.306959 -19.235955 37.686623 -5.152074 -4.283278 -31.498187 11.510211 27.304049 32.613876 10.981733 -8.270934 -34.542154 0.000000 0.000000 0.000000 6.167804 -26.008528 -111.658922 30.593900 60.121182 31.568849 -48.520138 -2.343815 -0.489282 0.000000 0.000000 0.000000 16.663954 -22.327107 91.810347 -58.098829 63.789755 -50.560753 -35.843027 14.279027 -8.173355 0.000000 0.000000 0.000000 
0.054752 0.904652 0.611446 179.191449 11.926096 175.122495 5.568695 -5.464388 -11.608581 -19.622990 -16.501258 18.373109 58.302894 -13.126155 3.627081 0.000000 0.000000 0.000000 1.791039 -12.078667 -16.144945 -12.635651 -23.561417 27.583407 26.238940 -4.722848 -5.714098 0.000000 0.000000 0.000000 -11.480784 -19.516209 37.886750 -4.768522 -3.931776 -31.434085 11.296502 27.629597 32.248172 10.581450 -9.654871 -33.889698 0.000000 0.000000 0.000000 6.841516 -25.060032 -114.494335 37.046344 59.057106 35.607550 -49.618512 -0.805662 -1.266773 0.000000 0.000000 0.000000 16.358949 -22.421408 93.015438 -60.163297 62.821753 -51.417667 -36.182516 14.024545 -8.268956 0.000000 0.000000 0.000000 
0.059258 0.902769 0.612005 179.160948 11.705257 174.999133 5.952426 -5.763474 -12.230491 -20.729655 -17.137310 19.737830 58.764799 -12.400898 4.431619 0.000000 0.000000 0.000000 1.965861 -11.842350 -16.046006 -12.862842 -23.932856 27.917573 26.823940 -4.551962 -6.751555 0.000000 0.000000 0.000000 -11.925657 -19.845630 38.268356 -4.563153 -3.810018 -31.572381 11.602174 28.147714 32.312193 9.869882 -10.442465 -33.768099 0.000000 0.000000 0.000000 7.778108 -24.026636 -117.273930 42.037354 58.109067 38.598346 -50.913187 0.175252 -1.970347 0.000000 0.000000 0.000000 15.532511 -22.720263 94.177550 -62.415312 62.370366 -52.289991 -37.060680 13.124609 -8.022504 0.000000 0.000000 0.000000 
0.062733 0.900260 0.612899 179.209500 11.597799 174.852035 6.717056 -6.261386 -12.721463 -22.590617 -18.043220 20.787960 59.233754 -11.374219 5.901993 0.000000 0.000000 0.000000 2.293575 -11.675788 -16.228906 -13.777824 -24.505289 28.861097 27.590791 -3.844214 -7.525876 0.000000 0.000000 0.000000 -12.558587 -20.648248 39.188254 -4.458679 -3.975467 -31.968103 12.169335 29.788381 32.273625 9.491217 -11.214864 -33.617421 0.000000 0.000000 0.000000 8.771146 -23.504914 -119.512534 45.587260 57.278327 40.529094 -52.439137 1.536502 -2.880731 0.000000 0.000000 0.000000 15.032544 -23.088366 95.002603 -63.379387 61.775893 -52.197510 -37.942057 13.235774 -8.173585 0.000000 0.000000 0.000000 
0.065501 0.898103 0.614226 179.193764 11.513350 175.010107 7.143313 -6.651385 -13.688600 -23.986635 -18.760363 22.066529 59.747081 -10.579316 7.204790 0.000000 0.000000 0.000000 2.476554 -11.896415 -16.720163 -14.325464 -24.965455 29.613115 28.185894 -2.941341 -8.008357 0.000000 0.000000 0.000000 -13.620954 -21.239908 40.040966 -4.037561 -3.696327 -32.017855 12.604537 30.650144 32.382071 9.497549 -11.326639 -33.737077 0.000000 0.000000 0.000000 8.893353 -23.526023 -119.623265 45.324674 57.349704 40.393284 -54.286265 0.834959 -2.390622 0.000000 0.000000 0.000000 14.113005 -22.899748 95.585425 -63.580405 61.244600 -51.155060 -38.493633 12.874364 -8.043644 0.000000 0.000000 0.000000 
0.067910 0.895561 0.615610 179.278199 11.729787 174.988430 7.823071 -7.118304 -14.375765 -25.754582 -19.509797 23.222454 60.136863 -9.389881 8.884821 0.000000 0.000000 0.000000 2.651793 -12.107920 -17.221719 -15.331643 -25.810425 31.002698 29.061468 -1.376990 -8.036597 0.000000 0.000000 0.000000 -14.279162 -21.860705 40.898375 -4.176492 -4.014266 -32.158247 13.535498 32.263357 32.558322 9.467184 -11.769440 -33.581827 0.000000 0.000000 0.000000 9.408128 -23.513873 -120.493421 46.186066 57.171749 40.834157 -56.274747 1.292746 -2.660405 0.000000 0.000000 0.000000 13.911909 -23.232145 95.672072 -62.843810 60.976428 -50.047485 -39.208153 13.599573 -8.332848 0.000000 0.000000 0.000000 
0.070557 0.892627 0.616705 179.358334 11.462925 175.110422 8.245717 -7.510179 -15.045652 -26.743290 -19.970011 24.087584 60.980289 -8.801280 9.578300 0.000000 0.000000 0.000000 2.949573 -12.439056 -17.944318 -16.769358 -26.646166 32.607945 29.947184 0.066633 -8.232805 0.000000 0.000000 0.000000 -15.694993 -22.686756 42.093658 -3.739488 -3.755743 -32.080079 13.917600 33.289022 32.740187 9.788051 -11.672178 -33.759563 0.000000 0.000000 0.000000 9.205793 -24.086631 -119.395055 43.643943 57.136438 38.971293 -57.775194 0.519773 -1.791993 0.000000 0.000000 0.000000 13.663627 -22.733658 96.025749 -62.625943 60.195772 -49.169071 -39.852455 13.425380 -8.457694 0.000000 0.000000 0.000000 
0.073419 0.888478 0.617394 179.520363 10.996102 174.775922 8.852147 -7.966437 -15.430206 -28.527971 -20.766076 25.411289 61.875323 -7.774878 10.564559 0.000000 0.000000 0.000000 3.148893 -12.571263 -18.228768 -18.835872 -27.946393 34.841572 31.426103 1.819938 -8.692889 0.000000 0.000000 0.000000 -16.794554 -23.483883 43.199793 -4.103651 -4.189199 -31.755607 14.988521 34.710605 32.849877 9.518981 -13.196997 -33.302641 0.000000 0.000000 0.000000 10.322779 -24.125726 -121.760337 47.068464 55.711467 40.647757 -59.482565 2.489734 -2.914690 0.000000 0.000000 0.000000 13.240202 -22.700841 98.062523 -63.662790 58.486897 -48.649247 -40.469794 12.451551 -8.313135 0.000000 0.000000 0.000000 
0.076115 0.883337 0.617820 179.622937 10.830235 174.513534 9.857442 -8.641630 -15.873706 -31.445457 -21.936624 26.589446 62.778454 -6.151716 12.644640 0.000000 0.000000 0.000000 3.280022 -12.972538 -18.776702 -21.441711 -29.319542 37.674492 33.318074 4.479767 -8.825582 0.000000 0.000000 0.000000 -19.063662 -24.363420 44.779195 -3.806399 -4.189802 -31.941109 16.362700 36.417162 33.468260 9.751371 -13.508476 -33.484500 0.000000 0.000000 0.000000 11.393504 -24.348005 -122.899731 49.257238 54.844092 41.462471 -60.592502 3.711658 -3.868013 0.000000 0.000000 0.000000 12.776490 -22.519760 99.769253 -64.912179 57.001328 -48.382195 -40.680328 11.357421 -8.036024 0.000000 0.000000 0.000000 
0.078153 0.878487 0.618270 179.475151 10.779098 174.099294 10.513992 -9.109421 -16.362676 -34.722841 -23.248005 28.148205 63.281206 -4.338870 15.061948 0.000000 0.000000 0.000000 3.611073 -13.250928 -19.423345 -24.875984 -29.966706 40.488915 35.037729 6.881116 -8.784012 0.000000 0.000000 0.000000 -21.113861 -25.074547 46.139129 -3.544949 -4.117080 -31.981275 17.242487 37.688115 33.678749 9.882684 -14.307239 -33.197513 0.000000 0.000000 0.000000 11.508082 -24.848088 -121.614054 48.122353 54.554925 40.132609 -61.529560 3.719909 -3.801893 0.000000 0.000000 0.000000 13.422202 -22.222751 99.140252 -62.577902 56.592713 -46.757166 -40.992741 11.945158 -8.476038 0.000000 0.000000 0.000000 
0.079489 0.874459 0.618632 179.407879 10.860875 174.037662 10.948743 -9.467053 -16.941615 -36.848233 -24.022677 29.272659 63.913081 -2.961431 16.726065 0.000000 0.000000 0.000000 3.909956 -13.796896 -20.323395 -27.830523 -30.459735 43.014959 36.465671 9.287282 -8.143671 0.000000 0.000000 0.000000 -23.280199 -25.694800 47.498624 -3.355609 -4.265820 -32.277742 18.568446 39.146195 34.406227 9.740411 -14.275998 -33.702764 0.000000 0.000000 0.000000 11.809402 -25.505987 -120.952392 48.224528 54.491639 40.007090 -61.063506 2.907265 -3.517437 0.000000 0.000000 0.000000 13.488080 -21.723157 100.105396 -63.215416 55.284802 -46.389143 -40.536806 11.223696 -8.331170 0.000000 0.000000 0.000000 
